<mxfile host="app.diagrams.net" agent="Mozilla/5.0 (X11; Linux x86_64) AppleWebKit/537.36 (KHTML, like Gecko) Chrome/135.0.0.0 Safari/537.36" version="26.2.14">
  <diagram name="Page-1" id="igVRPugG5Wv7NKmF727j">
    <mxGraphModel dx="9542" dy="2214" grid="1" gridSize="10" guides="1" tooltips="1" connect="1" arrows="1" fold="1" page="1" pageScale="1" pageWidth="850" pageHeight="1100" math="0" shadow="0">
      <root>
        <mxCell id="0" />
        <mxCell id="1" parent="0" />
        <mxCell id="WMlHvNs0hS5G-Wxw-1Gu-2" value="" style="edgeStyle=orthogonalEdgeStyle;rounded=0;orthogonalLoop=1;jettySize=auto;html=1;" parent="1" source="WMlHvNs0hS5G-Wxw-1Gu-6" target="WMlHvNs0hS5G-Wxw-1Gu-10" edge="1">
          <mxGeometry relative="1" as="geometry" />
        </mxCell>
        <mxCell id="WMlHvNs0hS5G-Wxw-1Gu-3" value="" style="edgeStyle=orthogonalEdgeStyle;rounded=0;orthogonalLoop=1;jettySize=auto;html=1;" parent="1" source="WMlHvNs0hS5G-Wxw-1Gu-6" target="WMlHvNs0hS5G-Wxw-1Gu-12" edge="1">
          <mxGeometry relative="1" as="geometry" />
        </mxCell>
        <mxCell id="WMlHvNs0hS5G-Wxw-1Gu-4" style="edgeStyle=orthogonalEdgeStyle;rounded=0;orthogonalLoop=1;jettySize=auto;html=1;" parent="1" source="WMlHvNs0hS5G-Wxw-1Gu-6" target="WMlHvNs0hS5G-Wxw-1Gu-14" edge="1">
          <mxGeometry relative="1" as="geometry">
            <mxPoint x="-467" y="80" as="targetPoint" />
            <Array as="points">
              <mxPoint x="-460" />
              <mxPoint x="-637" />
            </Array>
          </mxGeometry>
        </mxCell>
        <mxCell id="WMlHvNs0hS5G-Wxw-1Gu-5" style="edgeStyle=orthogonalEdgeStyle;rounded=0;orthogonalLoop=1;jettySize=auto;html=1;" parent="1" source="WMlHvNs0hS5G-Wxw-1Gu-6" target="WMlHvNs0hS5G-Wxw-1Gu-16" edge="1">
          <mxGeometry relative="1" as="geometry">
            <Array as="points">
              <mxPoint x="-50" />
              <mxPoint x="93" />
            </Array>
          </mxGeometry>
        </mxCell>
        <mxCell id="W3XtG6caccXuPEyk9hnB-5" style="edgeStyle=orthogonalEdgeStyle;rounded=0;orthogonalLoop=1;jettySize=auto;html=1;" edge="1" parent="1" source="WMlHvNs0hS5G-Wxw-1Gu-6" target="WMlHvNs0hS5G-Wxw-1Gu-8">
          <mxGeometry relative="1" as="geometry" />
        </mxCell>
        <mxCell id="W3XtG6caccXuPEyk9hnB-8" style="edgeStyle=orthogonalEdgeStyle;rounded=0;orthogonalLoop=1;jettySize=auto;html=1;exitX=0;exitY=0;exitDx=0;exitDy=0;entryX=0.5;entryY=0;entryDx=0;entryDy=0;" edge="1" parent="1" source="WMlHvNs0hS5G-Wxw-1Gu-6" target="W3XtG6caccXuPEyk9hnB-9">
          <mxGeometry relative="1" as="geometry">
            <mxPoint x="-2190" y="390" as="targetPoint" />
          </mxGeometry>
        </mxCell>
        <mxCell id="WMlHvNs0hS5G-Wxw-1Gu-6" value="&lt;font style=&quot;font-size: 75px;&quot;&gt;Dhvani&lt;/font&gt;" style="rounded=1;whiteSpace=wrap;html=1;" parent="1" vertex="1">
          <mxGeometry x="-529" y="-290" width="550" height="220" as="geometry" />
        </mxCell>
        <mxCell id="WMlHvNs0hS5G-Wxw-1Gu-7" style="edgeStyle=orthogonalEdgeStyle;rounded=0;orthogonalLoop=1;jettySize=auto;html=1;" parent="1" source="WMlHvNs0hS5G-Wxw-1Gu-8" target="WMlHvNs0hS5G-Wxw-1Gu-29" edge="1">
          <mxGeometry relative="1" as="geometry" />
        </mxCell>
        <mxCell id="WMlHvNs0hS5G-Wxw-1Gu-8" value="Blood Bank" style="whiteSpace=wrap;html=1;rounded=1;" parent="1" vertex="1">
          <mxGeometry x="-314" y="90" width="120" height="60" as="geometry" />
        </mxCell>
        <mxCell id="WMlHvNs0hS5G-Wxw-1Gu-9" style="edgeStyle=orthogonalEdgeStyle;rounded=0;orthogonalLoop=1;jettySize=auto;html=1;entryX=0.5;entryY=0;entryDx=0;entryDy=0;" parent="1" source="WMlHvNs0hS5G-Wxw-1Gu-10" target="WMlHvNs0hS5G-Wxw-1Gu-27" edge="1">
          <mxGeometry relative="1" as="geometry" />
        </mxCell>
        <mxCell id="WMlHvNs0hS5G-Wxw-1Gu-10" value="Stroke Management" style="rounded=1;whiteSpace=wrap;html=1;" parent="1" vertex="1">
          <mxGeometry x="-1067" y="91" width="120" height="60" as="geometry" />
        </mxCell>
        <mxCell id="WMlHvNs0hS5G-Wxw-1Gu-11" style="edgeStyle=orthogonalEdgeStyle;rounded=0;orthogonalLoop=1;jettySize=auto;html=1;exitX=1;exitY=0.5;exitDx=0;exitDy=0;entryX=0.5;entryY=0;entryDx=0;entryDy=0;" parent="1" source="WMlHvNs0hS5G-Wxw-1Gu-12" target="WMlHvNs0hS5G-Wxw-1Gu-31" edge="1">
          <mxGeometry relative="1" as="geometry" />
        </mxCell>
        <mxCell id="WMlHvNs0hS5G-Wxw-1Gu-12" value="Disease Detection" style="whiteSpace=wrap;html=1;rounded=1;" parent="1" vertex="1">
          <mxGeometry x="403" y="91" width="120" height="60" as="geometry" />
        </mxCell>
        <mxCell id="WMlHvNs0hS5G-Wxw-1Gu-13" value="" style="edgeStyle=orthogonalEdgeStyle;rounded=0;orthogonalLoop=1;jettySize=auto;html=1;" parent="1" source="WMlHvNs0hS5G-Wxw-1Gu-14" target="WMlHvNs0hS5G-Wxw-1Gu-28" edge="1">
          <mxGeometry relative="1" as="geometry" />
        </mxCell>
        <mxCell id="WMlHvNs0hS5G-Wxw-1Gu-14" value="TB Detection and Analysis" style="rounded=1;whiteSpace=wrap;html=1;" parent="1" vertex="1">
          <mxGeometry x="-697" y="91" width="120" height="60" as="geometry" />
        </mxCell>
        <mxCell id="WMlHvNs0hS5G-Wxw-1Gu-15" style="edgeStyle=orthogonalEdgeStyle;rounded=0;orthogonalLoop=1;jettySize=auto;html=1;" parent="1" source="WMlHvNs0hS5G-Wxw-1Gu-16" target="WMlHvNs0hS5G-Wxw-1Gu-30" edge="1">
          <mxGeometry relative="1" as="geometry" />
        </mxCell>
        <mxCell id="WMlHvNs0hS5G-Wxw-1Gu-16" value="Mobile - Health and Step Tracker&amp;nbsp;" style="rounded=1;whiteSpace=wrap;html=1;" parent="1" vertex="1">
          <mxGeometry x="33" y="91" width="120" height="60" as="geometry" />
        </mxCell>
        <mxCell id="WMlHvNs0hS5G-Wxw-1Gu-17" style="edgeStyle=orthogonalEdgeStyle;rounded=0;orthogonalLoop=1;jettySize=auto;html=1;" parent="1" source="WMlHvNs0hS5G-Wxw-1Gu-18" target="WMlHvNs0hS5G-Wxw-1Gu-6" edge="1">
          <mxGeometry relative="1" as="geometry" />
        </mxCell>
        <mxCell id="WMlHvNs0hS5G-Wxw-1Gu-18" value="&lt;div style=&quot;text-align: center;&quot;&gt;&lt;span style=&quot;font-size: 25px; background-color: transparent; color: light-dark(rgb(0, 0, 0), rgb(255, 255, 255));&quot;&gt;Types of Users&lt;/span&gt;&lt;/div&gt;&lt;div style=&quot;&quot;&gt;&lt;ul&gt;&lt;li&gt;&lt;font style=&quot;font-size: 25px;&quot;&gt;&lt;span style=&quot;background-color: transparent; color: light-dark(rgb(0, 0, 0), rgb(255, 255, 255));&quot;&gt;&lt;font style=&quot;&quot;&gt;(U)&amp;nbsp; User/Patient: Can ask for Blood, can donate blood, Can See There Reports (TB or Strokes), Can use disease Detection chat bot,&lt;/font&gt;&lt;/span&gt;&amp;nbsp;can use the health tracker application on mobile&lt;/font&gt;&lt;/li&gt;&lt;li&gt;&lt;span style=&quot;background-color: transparent; color: light-dark(rgb(0, 0, 0), rgb(255, 255, 255));&quot;&gt;&lt;font style=&quot;font-size: 25px;&quot;&gt;(H) Hospitals:&amp;nbsp; Can Scan TB and Stroke Report , Can use disease detection chat bota to take&amp;nbsp; ideas and help doctors, Submit reports of a patient after analysis, manage blood inventory give or take blood&amp;nbsp;&lt;/font&gt;&lt;/span&gt;&lt;/li&gt;&lt;li style=&quot;&quot;&gt;&lt;span style=&quot;background-color: transparent; color: light-dark(rgb(0, 0, 0), rgb(255, 255, 255));&quot;&gt;&lt;font style=&quot;font-size: 25px;&quot;&gt;(A) Admin: can manage the entire website delete a user, delete a hospital etc everything just the maintainer of the website&lt;/font&gt;&lt;/span&gt;&lt;/li&gt;&lt;li style=&quot;&quot;&gt;&lt;span style=&quot;background-color: transparent; color: light-dark(rgb(0, 0, 0), rgb(255, 255, 255));&quot;&gt;&lt;font style=&quot;font-size: 25px;&quot;&gt;Optional - (D) : Helpline, Appointment,&amp;nbsp;&lt;/font&gt;&lt;/span&gt;&lt;/li&gt;&lt;/ul&gt;&lt;div style=&quot;text-align: center;&quot;&gt;&lt;span style=&quot;font-size: 25px;&quot;&gt;Routes&lt;/span&gt;&lt;/div&gt;&lt;ul&gt;&lt;li&gt;&lt;span style=&quot;font-size: 25px;&quot;&gt;/register - register all 3 types of users&amp;nbsp;&lt;/span&gt;&lt;/li&gt;&lt;li&gt;&lt;span style=&quot;font-size: 25px;&quot;&gt;/login - login all 3 types of users&lt;/span&gt;&lt;/li&gt;&lt;/ul&gt;&lt;/div&gt;" style="rounded=0;whiteSpace=wrap;html=1;align=left;" parent="1" vertex="1">
          <mxGeometry x="-1046.5" y="-1006" width="1590" height="480" as="geometry" />
        </mxCell>
        <mxCell id="WMlHvNs0hS5G-Wxw-1Gu-19" value="User/Patient -&#xa;Name&#xa;Email&#xa;Phone&#xa;Password&#xa;Blood Group ?&#xa;10 digit number (Could be used to link PAN in future) &#xa;Locality ?&#xa;City ?&#xa;Gender&#xa;&#xa;Admin - &#xa;Name &#xa;Email&#xa;Password " style="rounded=1;whiteSpace=wrap;align=left;fontSize=22;flipV=1;flipH=1;spacingTop=10;spacing=12;spacingBottom=10;spacingLeft=10;spacingRight=10;" parent="1" vertex="1">
          <mxGeometry x="1860" y="-526" width="450" height="480" as="geometry" />
        </mxCell>
        <mxCell id="WMlHvNs0hS5G-Wxw-1Gu-20" value="Location Blood Camp -&#xa;Address &#xa;Date &#xa;Time &#xa;Contact Details&#xa;Hospital/NGO id&#xa;&#xa;Blood Donation Request -&#xa;Patient Id&#xa;Qty" style="rounded=1;whiteSpace=wrap;align=left;fontSize=25;flipV=1;flipH=1;spacingTop=10;spacing=12;spacingBottom=10;spacingLeft=10;spacingRight=10;" parent="1" vertex="1">
          <mxGeometry x="2479" y="43" width="450" height="480" as="geometry" />
        </mxCell>
        <mxCell id="WMlHvNs0hS5G-Wxw-1Gu-21" value="Hospital/NGO -&#xa;Name &#xa;Email &#xa;Phone &#xa;Address&#xa;Blood Inventory (Reference)&#xa;10 digit number (Could be Used to link PAN in future)" style="rounded=1;whiteSpace=wrap;align=left;fontSize=25;flipV=1;flipH=1;spacingTop=10;spacing=12;spacingBottom=10;spacingLeft=10;spacingRight=10;" parent="1" vertex="1">
          <mxGeometry x="3100" y="-526" width="450" height="480" as="geometry" />
        </mxCell>
        <mxCell id="WMlHvNs0hS5G-Wxw-1Gu-22" value="Reports -&#xa;Patient Id&#xa;Hospital Id &#xa;Report Ids&#xa;&#xa;Report - &#xa;Symptoms &#xa;Body Weight &#xa;Height &#xa;Summary of Report&#xa;" style="rounded=1;whiteSpace=wrap;align=left;fontSize=25;flipV=1;flipH=1;spacingTop=10;spacing=12;spacingBottom=10;spacingLeft=10;spacingRight=10;" parent="1" vertex="1">
          <mxGeometry x="2479" y="-526" width="450" height="480" as="geometry" />
        </mxCell>
        <mxCell id="WMlHvNs0hS5G-Wxw-1Gu-23" value="Blood Inventory -&#xa;A+_Qty&#xa;B+_Qty&#xa;AB+_Qty&#xa;O+_Qty&#xa;A-_Qty&#xa;B-_Qty&#xa;AB-_Qty&#xa;O-_Qty" style="rounded=1;whiteSpace=wrap;align=left;fontSize=25;flipV=1;flipH=1;spacingTop=10;spacing=12;spacingBottom=10;spacingLeft=10;spacingRight=10;" parent="1" vertex="1">
          <mxGeometry x="1860" y="43" width="450" height="480" as="geometry" />
        </mxCell>
        <mxCell id="WMlHvNs0hS5G-Wxw-1Gu-24" value="Health Tracker Application -&#xa;User Id &#xa;Weight &#xa;Height &#xa;No of Steps in a Day&#xa;Burnt Calorie in a Day &#xa;&#xa;Weekly Food Schedule -&#xa;all 7 days " style="rounded=1;whiteSpace=wrap;align=left;fontSize=25;flipV=1;flipH=1;spacingTop=10;spacing=12;spacingBottom=10;spacingLeft=10;spacingRight=10;" parent="1" vertex="1">
          <mxGeometry x="3100" y="43" width="450" height="480" as="geometry" />
        </mxCell>
        <mxCell id="WMlHvNs0hS5G-Wxw-1Gu-25" value="" style="rounded=1;whiteSpace=wrap;align=left;fontSize=25;flipV=1;flipH=1;spacingTop=10;spacing=12;spacingBottom=10;spacingLeft=10;spacingRight=10;" parent="1" vertex="1">
          <mxGeometry x="3720" y="-517" width="450" height="480" as="geometry" />
        </mxCell>
        <mxCell id="WMlHvNs0hS5G-Wxw-1Gu-26" value="" style="rounded=1;whiteSpace=wrap;align=left;fontSize=25;flipV=1;flipH=1;spacingTop=10;spacing=12;spacingBottom=10;spacingLeft=10;spacingRight=10;" parent="1" vertex="1">
          <mxGeometry x="3720" y="43" width="450" height="480" as="geometry" />
        </mxCell>
        <mxCell id="WMlHvNs0hS5G-Wxw-1Gu-27" value="/send Report&amp;nbsp;&lt;div&gt;&amp;nbsp;/analyse report&amp;nbsp;&lt;/div&gt;&lt;div&gt;/get patient Reports&amp;nbsp;&lt;/div&gt;&lt;div&gt;/search all patient&lt;/div&gt;&lt;div&gt;/save report&lt;/div&gt;" style="rounded=1;whiteSpace=wrap;html=1;fontSize=30;" parent="1" vertex="1">
          <mxGeometry x="-1587" y="470" width="515" height="370" as="geometry" />
        </mxCell>
        <mxCell id="WMlHvNs0hS5G-Wxw-1Gu-28" value="&lt;div&gt;&lt;span style=&quot;font-size: 30px;&quot;&gt;/send Report&amp;nbsp;&lt;/span&gt;&lt;/div&gt;&lt;div&gt;&lt;span style=&quot;font-size: 30px;&quot;&gt;/save report&amp;nbsp;&lt;/span&gt;&lt;/div&gt;" style="whiteSpace=wrap;html=1;rounded=1;" parent="1" vertex="1">
          <mxGeometry x="-1047" y="470" width="515" height="370" as="geometry" />
        </mxCell>
        <mxCell id="WMlHvNs0hS5G-Wxw-1Gu-29" value="&lt;div&gt;&lt;span style=&quot;font-size: 30px; background-color: transparent; color: light-dark(rgb(0, 0, 0), rgb(255, 255, 255));&quot;&gt;/donate blood&lt;/span&gt;&lt;/div&gt;&lt;div&gt;&lt;span style=&quot;font-size: 30px;&quot;&gt;/get donation location&amp;nbsp;&lt;/span&gt;&lt;/div&gt;&lt;div&gt;&lt;span style=&quot;font-size: 30px;&quot;&gt;/get and delete users&lt;/span&gt;&lt;/div&gt;&lt;div&gt;&lt;span style=&quot;font-size: 30px;&quot;&gt;/get donation history&lt;/span&gt;&lt;/div&gt;&lt;div&gt;&lt;span style=&quot;font-size: 30px;&quot;&gt;/get analytics&lt;/span&gt;&lt;/div&gt;&lt;div&gt;&lt;span style=&quot;font-size: 30px;&quot;&gt;/get inventory&lt;/span&gt;&lt;/div&gt;" style="whiteSpace=wrap;html=1;rounded=1;" parent="1" vertex="1">
          <mxGeometry x="-509" y="470" width="515" height="370" as="geometry" />
        </mxCell>
        <mxCell id="WMlHvNs0hS5G-Wxw-1Gu-30" value="&lt;span style=&quot;font-size: 30px;&quot;&gt;/get edit weight&lt;/span&gt;&lt;div&gt;&lt;span style=&quot;font-size: 30px;&quot;&gt;/get edit height&lt;/span&gt;&lt;/div&gt;&lt;div&gt;&lt;span style=&quot;font-size: 30px;&quot;&gt;/get calorie&lt;/span&gt;&lt;/div&gt;&lt;div&gt;&lt;span style=&quot;font-size: 30px;&quot;&gt;/get steps&amp;nbsp;&lt;/span&gt;&lt;/div&gt;" style="whiteSpace=wrap;html=1;rounded=1;" parent="1" vertex="1">
          <mxGeometry x="28" y="470" width="515" height="370" as="geometry" />
        </mxCell>
        <mxCell id="WMlHvNs0hS5G-Wxw-1Gu-31" value="&lt;div&gt;&lt;span style=&quot;font-size: 30px;&quot;&gt;/chat&lt;/span&gt;&lt;/div&gt;" style="whiteSpace=wrap;html=1;rounded=1;" parent="1" vertex="1">
          <mxGeometry x="563" y="470" width="515" height="370" as="geometry" />
        </mxCell>
        <mxCell id="W3XtG6caccXuPEyk9hnB-15" style="edgeStyle=orthogonalEdgeStyle;rounded=0;orthogonalLoop=1;jettySize=auto;html=1;entryX=0.5;entryY=0;entryDx=0;entryDy=0;" edge="1" parent="1" source="W3XtG6caccXuPEyk9hnB-9" target="W3XtG6caccXuPEyk9hnB-12">
          <mxGeometry relative="1" as="geometry">
            <Array as="points">
              <mxPoint x="-1870" y="121" />
            </Array>
          </mxGeometry>
        </mxCell>
        <mxCell id="W3XtG6caccXuPEyk9hnB-18" value="" style="edgeStyle=orthogonalEdgeStyle;rounded=0;orthogonalLoop=1;jettySize=auto;html=1;" edge="1" parent="1" source="W3XtG6caccXuPEyk9hnB-9" target="W3XtG6caccXuPEyk9hnB-17">
          <mxGeometry relative="1" as="geometry" />
        </mxCell>
        <mxCell id="W3XtG6caccXuPEyk9hnB-20" value="" style="edgeStyle=orthogonalEdgeStyle;rounded=0;orthogonalLoop=1;jettySize=auto;html=1;" edge="1" parent="1" source="W3XtG6caccXuPEyk9hnB-9" target="W3XtG6caccXuPEyk9hnB-19">
          <mxGeometry relative="1" as="geometry">
            <Array as="points">
              <mxPoint x="-3925" y="170" />
            </Array>
          </mxGeometry>
        </mxCell>
        <mxCell id="W3XtG6caccXuPEyk9hnB-22" style="edgeStyle=orthogonalEdgeStyle;rounded=0;orthogonalLoop=1;jettySize=auto;html=1;exitX=0;exitY=1;exitDx=0;exitDy=0;" edge="1" parent="1" source="W3XtG6caccXuPEyk9hnB-9" target="W3XtG6caccXuPEyk9hnB-21">
          <mxGeometry relative="1" as="geometry" />
        </mxCell>
        <mxCell id="W3XtG6caccXuPEyk9hnB-25" style="edgeStyle=orthogonalEdgeStyle;rounded=0;orthogonalLoop=1;jettySize=auto;html=1;" edge="1" parent="1" source="W3XtG6caccXuPEyk9hnB-9" target="W3XtG6caccXuPEyk9hnB-26">
          <mxGeometry relative="1" as="geometry">
            <mxPoint x="-4480" y="1520" as="targetPoint" />
            <Array as="points">
              <mxPoint x="-2475" y="-360" />
              <mxPoint x="-6270" y="-360" />
            </Array>
          </mxGeometry>
        </mxCell>
        <mxCell id="W3XtG6caccXuPEyk9hnB-9" value="Dental Application" style="rounded=1;whiteSpace=wrap;html=1;fontSize=30;" vertex="1" parent="1">
          <mxGeometry x="-2600" y="68" width="250" height="104" as="geometry" />
        </mxCell>
        <mxCell id="W3XtG6caccXuPEyk9hnB-10" value="&lt;font style=&quot;font-size: 112px;&quot;&gt;Optional Ignore&amp;nbsp;&lt;/font&gt;" style="text;html=1;align=center;verticalAlign=middle;resizable=0;points=[];autosize=1;strokeColor=none;fillColor=none;" vertex="1" parent="1">
          <mxGeometry x="-1920" y="-490" width="760" height="150" as="geometry" />
        </mxCell>
        <mxCell id="W3XtG6caccXuPEyk9hnB-12" value="&lt;blockquote style=&quot;margin: 0 0 0 40px; border: none; padding: 0px;&quot;&gt;&lt;span style=&quot;background-color: transparent; color: light-dark(rgb(0, 0, 0), rgb(255, 255, 255));&quot;&gt;1.) Patient&lt;/span&gt;&lt;span style=&quot;background-color: transparent; color: light-dark(rgb(0, 0, 0), rgb(255, 255, 255));&quot;&gt;&amp;nbsp;&lt;/span&gt;&lt;/blockquote&gt;&lt;blockquote style=&quot;margin: 0 0 0 40px; border: none; padding: 0px;&quot;&gt;&lt;div style=&quot;&quot;&gt;&lt;span style=&quot;background-color: transparent; color: light-dark(rgb(0, 0, 0), rgb(255, 255, 255));&quot;&gt;Patient Schema - Same as given&lt;/span&gt;&lt;/div&gt;&lt;/blockquote&gt;" style="whiteSpace=wrap;html=1;fontSize=30;rounded=1;align=left;" vertex="1" parent="1">
          <mxGeometry x="-2110" y="627.5" width="480" height="175" as="geometry" />
        </mxCell>
        <mxCell id="W3XtG6caccXuPEyk9hnB-17" value="&lt;blockquote style=&quot;margin: 0 0 0 40px; border: none; padding: 0px;&quot;&gt;&lt;div style=&quot;&quot;&gt;2.) Doctor&amp;nbsp;&lt;/div&gt;&lt;div style=&quot;&quot;&gt;Doctor Schema -&amp;nbsp;&lt;/div&gt;&lt;div style=&quot;&quot;&gt;Name&amp;nbsp;&lt;/div&gt;&lt;div style=&quot;&quot;&gt;Email&amp;nbsp;&lt;/div&gt;&lt;div style=&quot;&quot;&gt;Phone&amp;nbsp;&lt;/div&gt;&lt;div style=&quot;&quot;&gt;Pan&lt;/div&gt;&lt;div style=&quot;&quot;&gt;Password&lt;/div&gt;&lt;/blockquote&gt;" style="whiteSpace=wrap;html=1;fontSize=30;rounded=1;align=left;" vertex="1" parent="1">
          <mxGeometry x="-2762.5" y="560" width="575" height="310" as="geometry" />
        </mxCell>
        <mxCell id="W3XtG6caccXuPEyk9hnB-19" value="&lt;font style=&quot;font-size: 45px;&quot;&gt;5.) Camps (Same as Blood Camps But)&lt;/font&gt;&lt;div&gt;&lt;font style=&quot;font-size: 45px;&quot;&gt;&lt;span style=&quot;text-align: left;&quot;&gt;Location Doctor Camp -&lt;/span&gt;&lt;br style=&quot;padding: 0px; margin: 0px; text-align: left;&quot;&gt;&lt;span style=&quot;text-align: left;&quot;&gt;Address&amp;nbsp;&lt;/span&gt;&lt;br style=&quot;padding: 0px; margin: 0px; text-align: left;&quot;&gt;&lt;span style=&quot;text-align: left;&quot;&gt;Date&amp;nbsp;&lt;/span&gt;&lt;br style=&quot;padding: 0px; margin: 0px; text-align: left;&quot;&gt;&lt;span style=&quot;text-align: left;&quot;&gt;Time&amp;nbsp;&lt;/span&gt;&lt;br style=&quot;padding: 0px; margin: 0px; text-align: left;&quot;&gt;&lt;span style=&quot;text-align: left;&quot;&gt;Contact Details&lt;/span&gt;&lt;br style=&quot;padding: 0px; margin: 0px; text-align: left;&quot;&gt;&lt;span style=&quot;text-align: left;&quot;&gt;Doctor id&lt;/span&gt;&lt;/font&gt;&lt;/div&gt;" style="whiteSpace=wrap;html=1;fontSize=30;rounded=1;" vertex="1" parent="1">
          <mxGeometry x="-4390" y="445" width="930" height="540" as="geometry" />
        </mxCell>
        <mxCell id="W3XtG6caccXuPEyk9hnB-21" value="3.) Appointment&lt;div&gt;Patient Ids&lt;/div&gt;&lt;div&gt;Doctor Id&lt;/div&gt;&lt;div&gt;&lt;br&gt;&lt;/div&gt;&lt;div&gt;4.) Reports&amp;nbsp;&lt;/div&gt;&lt;div&gt;Diagnosis&lt;/div&gt;&lt;div&gt;Notes And Images (reports)&lt;/div&gt;" style="whiteSpace=wrap;html=1;fontSize=30;rounded=1;" vertex="1" parent="1">
          <mxGeometry x="-3360" y="570" width="470" height="290" as="geometry" />
        </mxCell>
        <mxCell id="W3XtG6caccXuPEyk9hnB-26" value="&lt;blockquote style=&quot;margin: 0 0 0 40px; border: none; padding: 0px;&quot;&gt;&lt;span style=&quot;font-size: 28px;&quot;&gt;&lt;br&gt;&lt;/span&gt;&lt;span style=&quot;font-size: 28px; background-color: transparent; color: light-dark(rgb(0, 0, 0), rgb(255, 255, 255));&quot;&gt;# AUTHENTICATION&lt;br&gt;&lt;/span&gt;&lt;span style=&quot;font-size: 28px; background-color: transparent; color: light-dark(rgb(0, 0, 0), rgb(255, 255, 255));&quot;&gt;POST&amp;nbsp; &amp;nbsp;/auth/login&amp;nbsp; &amp;nbsp; &amp;nbsp; &amp;nbsp; &amp;nbsp; &amp;nbsp; &amp;nbsp; &amp;nbsp; &amp;nbsp; &amp;nbsp; &amp;nbsp; &amp;nbsp; &amp;nbsp; # Send OTP to mobile/email&lt;br&gt;&lt;/span&gt;&lt;span style=&quot;font-size: 28px; background-color: transparent; color: light-dark(rgb(0, 0, 0), rgb(255, 255, 255));&quot;&gt;POST&amp;nbsp; &amp;nbsp;/auth/verify-otp&amp;nbsp; &amp;nbsp; &amp;nbsp; &amp;nbsp; &amp;nbsp; &amp;nbsp; &amp;nbsp; &amp;nbsp; &amp;nbsp; &amp;nbsp; &amp;nbsp;# Verify OTP, return JWT&lt;br&gt;&lt;/span&gt;&lt;span style=&quot;font-size: 28px; background-color: transparent; color: light-dark(rgb(0, 0, 0), rgb(255, 255, 255));&quot;&gt;POST&amp;nbsp; &amp;nbsp;/auth/logout&amp;nbsp; &amp;nbsp; &amp;nbsp; &amp;nbsp; &amp;nbsp; &amp;nbsp; &amp;nbsp; &amp;nbsp; &amp;nbsp; &amp;nbsp; &amp;nbsp; &amp;nbsp; &amp;nbsp;# Logout user (optional)&lt;br&gt;&lt;/span&gt;&lt;span style=&quot;font-size: 28px; background-color: transparent; color: light-dark(rgb(0, 0, 0), rgb(255, 255, 255));&quot;&gt;GET&amp;nbsp; &amp;nbsp; /users/me&amp;nbsp; &amp;nbsp; &amp;nbsp; &amp;nbsp; &amp;nbsp; &amp;nbsp; &amp;nbsp; &amp;nbsp; &amp;nbsp; &amp;nbsp; &amp;nbsp; &amp;nbsp; &amp;nbsp; &amp;nbsp; # Get current user (doctor) profile&lt;br&gt;&lt;/span&gt;&lt;span style=&quot;font-size: 28px; background-color: transparent; color: light-dark(rgb(0, 0, 0), rgb(255, 255, 255));&quot;&gt;PUT&amp;nbsp; &amp;nbsp; /users/me&amp;nbsp; &amp;nbsp; &amp;nbsp; &amp;nbsp; &amp;nbsp; &amp;nbsp; &amp;nbsp; &amp;nbsp; &amp;nbsp; &amp;nbsp; &amp;nbsp; &amp;nbsp; &amp;nbsp; &amp;nbsp; # Update editable fields&lt;br&gt;&lt;/span&gt;&lt;span style=&quot;font-size: 28px; background-color: transparent; color: light-dark(rgb(0, 0, 0), rgb(255, 255, 255));&quot;&gt;PUT&amp;nbsp; &amp;nbsp; /users/me/photo&amp;nbsp; &amp;nbsp; &amp;nbsp; &amp;nbsp; &amp;nbsp; &amp;nbsp; &amp;nbsp; &amp;nbsp; &amp;nbsp; &amp;nbsp; &amp;nbsp; # Upload or update profile photo&lt;/span&gt;&lt;span style=&quot;font-size: 28px;&quot;&gt;&lt;br&gt;&lt;/span&gt;&lt;span style=&quot;font-size: 28px; background-color: transparent; color: light-dark(rgb(0, 0, 0), rgb(255, 255, 255));&quot;&gt;&lt;br&gt;&lt;/span&gt;&lt;/blockquote&gt;&lt;blockquote style=&quot;margin: 0 0 0 40px; border: none; padding: 0px;&quot;&gt;&lt;span style=&quot;font-size: 28px; background-color: transparent; color: light-dark(rgb(0, 0, 0), rgb(255, 255, 255));&quot;&gt;# APPOINTMENTS&lt;br&gt;&lt;/span&gt;&lt;span style=&quot;font-size: 28px; background-color: transparent; color: light-dark(rgb(0, 0, 0), rgb(255, 255, 255));&quot;&gt;GET&amp;nbsp; &amp;nbsp; /appointments&amp;nbsp; &amp;nbsp; &amp;nbsp; &amp;nbsp; &amp;nbsp; &amp;nbsp; &amp;nbsp; &amp;nbsp; &amp;nbsp; &amp;nbsp; &amp;nbsp; &amp;nbsp; # Get appointments (query: ?date=YYYY-MM-DD)&lt;br&gt;&lt;/span&gt;&lt;span style=&quot;font-size: 28px; background-color: transparent; color: light-dark(rgb(0, 0, 0), rgb(255, 255, 255));&quot;&gt;POST&amp;nbsp; &amp;nbsp;/appointments&amp;nbsp; &amp;nbsp; &amp;nbsp; &amp;nbsp; &amp;nbsp; &amp;nbsp; &amp;nbsp; &amp;nbsp; &amp;nbsp; &amp;nbsp; &amp;nbsp; &amp;nbsp; # Create new appointment&lt;br&gt;&lt;/span&gt;&lt;span style=&quot;font-size: 28px; background-color: transparent; color: light-dark(rgb(0, 0, 0), rgb(255, 255, 255));&quot;&gt;GET&amp;nbsp; &amp;nbsp; /appointments/:id&amp;nbsp; &amp;nbsp; &amp;nbsp; &amp;nbsp; &amp;nbsp; &amp;nbsp; &amp;nbsp; &amp;nbsp; &amp;nbsp; &amp;nbsp; # Get appointment details&lt;br&gt;&lt;/span&gt;&lt;span style=&quot;font-size: 28px; background-color: transparent; color: light-dark(rgb(0, 0, 0), rgb(255, 255, 255));&quot;&gt;PUT&amp;nbsp; &amp;nbsp; /appointments/:id&amp;nbsp; &amp;nbsp; &amp;nbsp; &amp;nbsp; &amp;nbsp; &amp;nbsp; &amp;nbsp; &amp;nbsp; &amp;nbsp; &amp;nbsp; # Update appointment date/time&lt;br&gt;&lt;/span&gt;&lt;span style=&quot;font-size: 28px; background-color: transparent; color: light-dark(rgb(0, 0, 0), rgb(255, 255, 255));&quot;&gt;DELETE /appointments/:id&amp;nbsp; &amp;nbsp; &amp;nbsp; &amp;nbsp; &amp;nbsp; &amp;nbsp; &amp;nbsp; &amp;nbsp; &amp;nbsp; &amp;nbsp; # Cancel appointment&lt;/span&gt;&lt;span style=&quot;font-size: 28px;&quot;&gt;&lt;br&gt;&lt;/span&gt;&lt;span style=&quot;font-size: 28px; background-color: transparent; color: light-dark(rgb(0, 0, 0), rgb(255, 255, 255));&quot;&gt;&lt;br&gt;&lt;/span&gt;&lt;/blockquote&gt;&lt;blockquote style=&quot;margin: 0 0 0 40px; border: none; padding: 0px;&quot;&gt;&lt;span style=&quot;font-size: 28px; background-color: transparent; color: light-dark(rgb(0, 0, 0), rgb(255, 255, 255));&quot;&gt;# APPOINTMENT DETAILS&lt;br&gt;&lt;/span&gt;&lt;span style=&quot;font-size: 28px; background-color: transparent; color: light-dark(rgb(0, 0, 0), rgb(255, 255, 255));&quot;&gt;GET&amp;nbsp; &amp;nbsp; /appointments/:id/details&amp;nbsp; &amp;nbsp; &amp;nbsp; &amp;nbsp; &amp;nbsp; &amp;nbsp; # Get notes, prescriptions, photos&lt;br&gt;&lt;/span&gt;&lt;span style=&quot;font-size: 28px; background-color: transparent; color: light-dark(rgb(0, 0, 0), rgb(255, 255, 255));&quot;&gt;PUT&amp;nbsp; &amp;nbsp; /appointments/:id/notes&amp;nbsp; &amp;nbsp; &amp;nbsp; &amp;nbsp; &amp;nbsp; &amp;nbsp; &amp;nbsp; # Update or add notes&lt;br&gt;&lt;/span&gt;&lt;span style=&quot;font-size: 28px; background-color: transparent; color: light-dark(rgb(0, 0, 0), rgb(255, 255, 255));&quot;&gt;POST&amp;nbsp; &amp;nbsp;/appointments/:id/photos&amp;nbsp; &amp;nbsp; &amp;nbsp; &amp;nbsp; &amp;nbsp; &amp;nbsp; &amp;nbsp;# Upload photo with caption&lt;br&gt;&lt;/span&gt;&lt;span style=&quot;font-size: 28px; background-color: transparent; color: light-dark(rgb(0, 0, 0), rgb(255, 255, 255));&quot;&gt;DELETE /appointments/:id/photos/:photoId&amp;nbsp; &amp;nbsp; # Delete photo&lt;br&gt;&lt;/span&gt;&lt;span style=&quot;font-size: 28px; background-color: transparent; color: light-dark(rgb(0, 0, 0), rgb(255, 255, 255));&quot;&gt;POST&amp;nbsp; &amp;nbsp;/appointments/:id/prescriptions&amp;nbsp; &amp;nbsp; &amp;nbsp; # Add prescription&lt;br&gt;&lt;/span&gt;&lt;span style=&quot;font-size: 28px; background-color: transparent; color: light-dark(rgb(0, 0, 0), rgb(255, 255, 255));&quot;&gt;PUT&amp;nbsp; &amp;nbsp; /appointments/:id/prescriptions/:id&amp;nbsp; # Edit prescription&lt;br&gt;&lt;/span&gt;&lt;span style=&quot;font-size: 28px; background-color: transparent; color: light-dark(rgb(0, 0, 0), rgb(255, 255, 255));&quot;&gt;DELETE /appointments/:id/prescriptions/:id&amp;nbsp; # Delete prescription&lt;/span&gt;&lt;span style=&quot;font-size: 28px;&quot;&gt;&lt;br&gt;&lt;/span&gt;&lt;span style=&quot;font-size: 28px; background-color: transparent; color: light-dark(rgb(0, 0, 0), rgb(255, 255, 255));&quot;&gt;&lt;br&gt;&lt;/span&gt;&lt;/blockquote&gt;&lt;blockquote style=&quot;margin: 0 0 0 40px; border: none; padding: 0px;&quot;&gt;&lt;span style=&quot;font-size: 28px; background-color: transparent; color: light-dark(rgb(0, 0, 0), rgb(255, 255, 255));&quot;&gt;# PATIENTS&lt;br&gt;&lt;/span&gt;&lt;span style=&quot;font-size: 28px; background-color: transparent; color: light-dark(rgb(0, 0, 0), rgb(255, 255, 255));&quot;&gt;GET&amp;nbsp; &amp;nbsp; /patients&amp;nbsp; &amp;nbsp; &amp;nbsp; &amp;nbsp; &amp;nbsp; &amp;nbsp; &amp;nbsp; &amp;nbsp; &amp;nbsp; &amp;nbsp; &amp;nbsp; &amp;nbsp; &amp;nbsp; &amp;nbsp; # List patients (optional: ?search=)&lt;br&gt;&lt;/span&gt;&lt;span style=&quot;font-size: 28px; background-color: transparent; color: light-dark(rgb(0, 0, 0), rgb(255, 255, 255));&quot;&gt;POST&amp;nbsp; &amp;nbsp;/patients&amp;nbsp; &amp;nbsp; &amp;nbsp; &amp;nbsp; &amp;nbsp; &amp;nbsp; &amp;nbsp; &amp;nbsp; &amp;nbsp; &amp;nbsp; &amp;nbsp; &amp;nbsp; &amp;nbsp; &amp;nbsp; # Add new patient&lt;br&gt;&lt;/span&gt;&lt;span style=&quot;font-size: 28px; background-color: transparent; color: light-dark(rgb(0, 0, 0), rgb(255, 255, 255));&quot;&gt;GET&amp;nbsp; &amp;nbsp; /patients/:id&amp;nbsp; &amp;nbsp; &amp;nbsp; &amp;nbsp; &amp;nbsp; &amp;nbsp; &amp;nbsp; &amp;nbsp; &amp;nbsp; &amp;nbsp; &amp;nbsp; &amp;nbsp; # Get patient details&lt;br&gt;&lt;/span&gt;&lt;span style=&quot;font-size: 28px; background-color: transparent; color: light-dark(rgb(0, 0, 0), rgb(255, 255, 255));&quot;&gt;PUT&amp;nbsp; &amp;nbsp; /patients/:id&amp;nbsp; &amp;nbsp; &amp;nbsp; &amp;nbsp; &amp;nbsp; &amp;nbsp; &amp;nbsp; &amp;nbsp; &amp;nbsp; &amp;nbsp; &amp;nbsp; &amp;nbsp; # Update patient info&lt;br&gt;&lt;/span&gt;&lt;span style=&quot;font-size: 28px; background-color: transparent; color: light-dark(rgb(0, 0, 0), rgb(255, 255, 255));&quot;&gt;GET&amp;nbsp; &amp;nbsp; /patients/:id/history&amp;nbsp; &amp;nbsp; &amp;nbsp; &amp;nbsp; &amp;nbsp; &amp;nbsp; &amp;nbsp; &amp;nbsp; # Get patient history: notes, images, prescriptions&lt;/span&gt;&lt;span style=&quot;font-size: 28px;&quot;&gt;&lt;br&gt;&lt;/span&gt;&lt;span style=&quot;font-size: 28px; background-color: transparent; color: light-dark(rgb(0, 0, 0), rgb(255, 255, 255));&quot;&gt;&lt;br&gt;&lt;/span&gt;&lt;/blockquote&gt;&lt;blockquote style=&quot;margin: 0 0 0 40px; border: none; padding: 0px;&quot;&gt;&lt;span style=&quot;font-size: 28px; background-color: transparent; color: light-dark(rgb(0, 0, 0), rgb(255, 255, 255));&quot;&gt;# DOCTORS (Admin/Faculty Access)&lt;br&gt;&lt;/span&gt;&lt;span style=&quot;font-size: 28px; background-color: transparent; color: light-dark(rgb(0, 0, 0), rgb(255, 255, 255));&quot;&gt;GET&amp;nbsp; &amp;nbsp; /doctors&amp;nbsp; &amp;nbsp; &amp;nbsp; &amp;nbsp; &amp;nbsp; &amp;nbsp; &amp;nbsp; &amp;nbsp; &amp;nbsp; &amp;nbsp; &amp;nbsp; &amp;nbsp; &amp;nbsp; &amp;nbsp; &amp;nbsp;# List doctors with filters&lt;br&gt;&lt;/span&gt;&lt;span style=&quot;font-size: 28px; background-color: transparent; color: light-dark(rgb(0, 0, 0), rgb(255, 255, 255));&quot;&gt;POST&amp;nbsp; &amp;nbsp;/doctors&amp;nbsp; &amp;nbsp; &amp;nbsp; &amp;nbsp; &amp;nbsp; &amp;nbsp; &amp;nbsp; &amp;nbsp; &amp;nbsp; &amp;nbsp; &amp;nbsp; &amp;nbsp; &amp;nbsp; &amp;nbsp; &amp;nbsp;# Add new doctor&lt;br&gt;&lt;/span&gt;&lt;span style=&quot;font-size: 28px; background-color: transparent; color: light-dark(rgb(0, 0, 0), rgb(255, 255, 255));&quot;&gt;GET&amp;nbsp; &amp;nbsp; /doctors/:id&amp;nbsp; &amp;nbsp; &amp;nbsp; &amp;nbsp; &amp;nbsp; &amp;nbsp; &amp;nbsp; &amp;nbsp; &amp;nbsp; &amp;nbsp; &amp;nbsp; &amp;nbsp; &amp;nbsp;# Get doctor details&lt;br&gt;&lt;/span&gt;&lt;span style=&quot;font-size: 28px; background-color: transparent; color: light-dark(rgb(0, 0, 0), rgb(255, 255, 255));&quot;&gt;PUT&amp;nbsp; &amp;nbsp; /doctors/:id&amp;nbsp; &amp;nbsp; &amp;nbsp; &amp;nbsp; &amp;nbsp; &amp;nbsp; &amp;nbsp; &amp;nbsp; &amp;nbsp; &amp;nbsp; &amp;nbsp; &amp;nbsp; &amp;nbsp;# Update doctor data&lt;br&gt;&lt;/span&gt;&lt;span style=&quot;font-size: 28px; background-color: transparent; color: light-dark(rgb(0, 0, 0), rgb(255, 255, 255));&quot;&gt;PATCH&amp;nbsp; /doctors/:id/status&amp;nbsp; &amp;nbsp; &amp;nbsp; &amp;nbsp; &amp;nbsp; &amp;nbsp; &amp;nbsp; &amp;nbsp; &amp;nbsp; # Activate/Deactivate doctor&lt;br&gt;&lt;/span&gt;&lt;span style=&quot;font-size: 28px; background-color: transparent; color: light-dark(rgb(0, 0, 0), rgb(255, 255, 255));&quot;&gt;POST&amp;nbsp; &amp;nbsp;/doctors/:id/associate&amp;nbsp; &amp;nbsp; &amp;nbsp; &amp;nbsp; &amp;nbsp; &amp;nbsp; &amp;nbsp; &amp;nbsp;# Associate doctor to faculty&lt;/span&gt;&lt;span style=&quot;font-size: 28px;&quot;&gt;&lt;br&gt;&lt;/span&gt;&lt;span style=&quot;font-size: 28px; background-color: transparent; color: light-dark(rgb(0, 0, 0), rgb(255, 255, 255));&quot;&gt;&lt;br&gt;&lt;/span&gt;&lt;/blockquote&gt;&lt;blockquote style=&quot;margin: 0 0 0 40px; border: none; padding: 0px;&quot;&gt;&lt;span style=&quot;font-size: 28px; background-color: transparent; color: light-dark(rgb(0, 0, 0), rgb(255, 255, 255));&quot;&gt;# CAMPS&lt;br&gt;&lt;/span&gt;&lt;span style=&quot;font-size: 28px; background-color: transparent; color: light-dark(rgb(0, 0, 0), rgb(255, 255, 255));&quot;&gt;GET&amp;nbsp; &amp;nbsp; /camps&amp;nbsp; &amp;nbsp; &amp;nbsp; &amp;nbsp; &amp;nbsp; &amp;nbsp; &amp;nbsp; &amp;nbsp; &amp;nbsp; &amp;nbsp; &amp;nbsp; &amp;nbsp; &amp;nbsp; &amp;nbsp; &amp;nbsp; &amp;nbsp;# List all camps&lt;br&gt;&lt;/span&gt;&lt;span style=&quot;font-size: 28px; background-color: transparent; color: light-dark(rgb(0, 0, 0), rgb(255, 255, 255));&quot;&gt;POST&amp;nbsp; &amp;nbsp;/camps&amp;nbsp; &amp;nbsp; &amp;nbsp; &amp;nbsp; &amp;nbsp; &amp;nbsp; &amp;nbsp; &amp;nbsp; &amp;nbsp; &amp;nbsp; &amp;nbsp; &amp;nbsp; &amp;nbsp; &amp;nbsp; &amp;nbsp; &amp;nbsp;# Add a new camp&lt;br&gt;&lt;/span&gt;&lt;span style=&quot;font-size: 28px; background-color: transparent; color: light-dark(rgb(0, 0, 0), rgb(255, 255, 255));&quot;&gt;GET&amp;nbsp; &amp;nbsp; /camps/:id&amp;nbsp; &amp;nbsp; &amp;nbsp; &amp;nbsp; &amp;nbsp; &amp;nbsp; &amp;nbsp; &amp;nbsp; &amp;nbsp; &amp;nbsp; &amp;nbsp; &amp;nbsp; &amp;nbsp; &amp;nbsp;# Get camp details&lt;br&gt;&lt;/span&gt;&lt;span style=&quot;font-size: 28px; background-color: transparent; color: light-dark(rgb(0, 0, 0), rgb(255, 255, 255));&quot;&gt;PUT&amp;nbsp; &amp;nbsp; /camps/:id&amp;nbsp; &amp;nbsp; &amp;nbsp; &amp;nbsp; &amp;nbsp; &amp;nbsp; &amp;nbsp; &amp;nbsp; &amp;nbsp; &amp;nbsp; &amp;nbsp; &amp;nbsp; &amp;nbsp; &amp;nbsp;# Edit camp details&lt;br&gt;&lt;/span&gt;&lt;span style=&quot;font-size: 28px; background-color: transparent; color: light-dark(rgb(0, 0, 0), rgb(255, 255, 255));&quot;&gt;POST&amp;nbsp; &amp;nbsp;/camps/:id/complete&amp;nbsp; &amp;nbsp; &amp;nbsp; &amp;nbsp; &amp;nbsp; &amp;nbsp; &amp;nbsp; &amp;nbsp; &amp;nbsp; # Mark camp as complete&lt;br&gt;&lt;/span&gt;&lt;span style=&quot;font-size: 28px; background-color: transparent; color: light-dark(rgb(0, 0, 0), rgb(255, 255, 255));&quot;&gt;DELETE /camps/:id&amp;nbsp; &amp;nbsp; &amp;nbsp; &amp;nbsp; &amp;nbsp; &amp;nbsp; &amp;nbsp; &amp;nbsp; &amp;nbsp; &amp;nbsp; &amp;nbsp; &amp;nbsp; &amp;nbsp; &amp;nbsp;# Delete camp (if open and future-dated)&lt;/span&gt;&lt;span style=&quot;font-size: 28px;&quot;&gt;&lt;br&gt;&lt;/span&gt;&lt;span style=&quot;font-size: 28px; background-color: transparent; color: light-dark(rgb(0, 0, 0), rgb(255, 255, 255));&quot;&gt;&lt;br&gt;&lt;/span&gt;&lt;/blockquote&gt;&lt;blockquote style=&quot;margin: 0 0 0 40px; border: none; padding: 0px;&quot;&gt;&lt;span style=&quot;font-size: 28px; background-color: transparent; color: light-dark(rgb(0, 0, 0), rgb(255, 255, 255));&quot;&gt;# DASHBOARD&lt;/span&gt;&lt;/blockquote&gt;&lt;blockquote style=&quot;margin: 0 0 0 40px; border: none; padding: 0px;&quot;&gt;&lt;span style=&quot;background-color: transparent; color: light-dark(rgb(0, 0, 0), rgb(255, 255, 255)); font-size: 28px;&quot;&gt;GET&amp;nbsp; &amp;nbsp; /dashboard/summary&amp;nbsp; &amp;nbsp; &amp;nbsp; &amp;nbsp; &amp;nbsp; &amp;nbsp; &amp;nbsp; &amp;nbsp; &amp;nbsp; &amp;nbsp;# Get metrics for dashboard (patients, appointments, etc.)&lt;/span&gt;&lt;span style=&quot;font-size: 28px; background-color: transparent; color: light-dark(rgb(0, 0, 0), rgb(255, 255, 255));&quot;&gt;&lt;br&gt;&lt;/span&gt;&lt;/blockquote&gt;&lt;blockquote style=&quot;margin: 0 0 0 40px; border: none; padding: 0px;&quot;&gt;&lt;span style=&quot;font-size: 28px; background-color: transparent; color: light-dark(rgb(0, 0, 0), rgb(255, 255, 255));&quot;&gt;&lt;br&gt;&lt;/span&gt;&lt;/blockquote&gt;&lt;blockquote style=&quot;margin: 0 0 0 40px; border: none; padding: 0px;&quot;&gt;&lt;span style=&quot;font-size: 28px; background-color: transparent; color: light-dark(rgb(0, 0, 0), rgb(255, 255, 255));&quot;&gt;# SEARCH &amp;amp; UTILS&lt;br&gt;&lt;/span&gt;&lt;span style=&quot;font-size: 28px; background-color: transparent; color: light-dark(rgb(0, 0, 0), rgb(255, 255, 255));&quot;&gt;GET&amp;nbsp; &amp;nbsp; /search/patients&amp;nbsp; &amp;nbsp; &amp;nbsp; &amp;nbsp; &amp;nbsp; &amp;nbsp; &amp;nbsp; &amp;nbsp; &amp;nbsp; &amp;nbsp; &amp;nbsp;# Search patients by name or mobile&lt;br&gt;&lt;/span&gt;&lt;span style=&quot;font-size: 28px; background-color: transparent; color: light-dark(rgb(0, 0, 0), rgb(255, 255, 255));&quot;&gt;GET&amp;nbsp; &amp;nbsp; /search/doctors&amp;nbsp; &amp;nbsp; &amp;nbsp; &amp;nbsp; &amp;nbsp; &amp;nbsp; &amp;nbsp; &amp;nbsp; &amp;nbsp; &amp;nbsp; &amp;nbsp; # Search doctors&lt;br&gt;&lt;/span&gt;&lt;span style=&quot;font-size: 28px; background-color: transparent; color: light-dark(rgb(0, 0, 0), rgb(255, 255, 255));&quot;&gt;POST&amp;nbsp; &amp;nbsp;/upload/image&amp;nbsp; &amp;nbsp; &amp;nbsp; &amp;nbsp; &amp;nbsp; &amp;nbsp; &amp;nbsp; &amp;nbsp; &amp;nbsp; &amp;nbsp; &amp;nbsp; &amp;nbsp; # Secure image uploader&lt;/span&gt;&lt;div&gt;&lt;div&gt;&lt;font style=&quot;font-size: 28px;&quot;&gt;POST&amp;nbsp; &amp;nbsp;/bulk/patients&amp;nbsp; &amp;nbsp; &amp;nbsp; &amp;nbsp; &amp;nbsp; &amp;nbsp; &amp;nbsp; &amp;nbsp; &amp;nbsp; &amp;nbsp; &amp;nbsp; &amp;nbsp;# Bulk patient upload (CSV/Excel)&lt;/font&gt;&lt;/div&gt;&lt;/div&gt;&lt;/blockquote&gt;" style="rounded=1;whiteSpace=wrap;html=1;align=left;" vertex="1" parent="1">
          <mxGeometry x="-6920" y="-275" width="1620" height="2275" as="geometry" />
        </mxCell>
      </root>
    </mxGraphModel>
  </diagram>
</mxfile>
